<svg width="24" height="24" viewBox="0 0 24 24" fill="none" xmlns="http://www.w3.org/2000/svg">
<path d="M12.2386 3.80016L12 3.67062L11.7614 3.80016C11.6324 3.8702 11.4915 3.9486 11.3406 4.03525C10.5492 4.48953 9.50095 5.1601 8.46028 6.02733C6.3278 7.80439 4.5 10.172 4.5 13C4.5 17.1421 7.85786 20.5 12 20.5C16.1421 20.5 19.5 17.1421 19.5 13C19.5 10.172 17.6722 7.80439 15.5397 6.02733C14.499 5.1601 13.4508 4.48953 12.6594 4.03525C12.5085 3.9486 12.3676 3.8702 12.2386 3.80016ZM15.5 9.5C15.5 10.0523 15.0523 10.5 14.5 10.5C13.9477 10.5 13.5 10.0523 13.5 9.5C13.5 8.94772 13.9477 8.5 14.5 8.5C15.0523 8.5 15.5 8.94772 15.5 9.5ZM20.5 13C20.5 17.6944 16.6944 21.5 12 21.5C7.30558 21.5 3.5 17.6944 3.5 13C3.5 9.72383 5.60949 7.10128 7.82009 5.25911C8.91698 4.34504 10.0164 3.64234 10.8427 3.168C11.2553 2.93115 11.5983 2.75207 11.8369 2.63276C11.8984 2.60199 11.953 2.57521 12 2.55245C12.047 2.57521 12.1016 2.60199 12.1631 2.63276C12.4017 2.75207 12.7447 2.93115 13.1573 3.168C13.9836 3.64234 15.083 4.34504 16.1799 5.25911C18.3905 7.10128 20.5 9.72383 20.5 13Z" fill="#BDBDBD" stroke="#BDBDBD"/>
</svg>
