<svg width="24" height="24" viewBox="0 0 24 24" fill="none" xmlns="http://www.w3.org/2000/svg">
<mask id="path-1-inside-1_1330_1221" fill="white">
<path d="M21 13C21 17.9706 16.9706 22 12 22C7.02944 22 3 17.9706 3 13C3 6 12 2 12 2C12 2 21 6 21 13Z"/>
</mask>
<path d="M12 2L12.8123 0.172377C12.2951 -0.0574589 11.7049 -0.0574589 11.1877 0.172377L12 2ZM19 13C19 16.866 15.866 20 12 20V24C18.0751 24 23 19.0751 23 13H19ZM12 20C8.13401 20 5 16.866 5 13H1C1 19.0751 5.92487 24 12 24V20ZM5 13C5 10.3953 6.68796 8.15512 8.78037 6.41144C9.79293 5.56764 10.8156 4.91312 11.5895 4.46888C11.9741 4.24806 12.2915 4.08248 12.5077 3.9744C12.6156 3.92043 12.6979 3.88102 12.7502 3.85642C12.7763 3.84413 12.7949 3.83556 12.8055 3.83074C12.8107 3.82834 12.814 3.82687 12.8151 3.82635C12.8157 3.82609 12.8158 3.82606 12.8153 3.82627C12.8151 3.82638 12.8147 3.82655 12.8142 3.82677C12.8139 3.82688 12.8135 3.8271 12.8133 3.82715C12.8128 3.82738 12.8123 3.82762 12 2C11.1877 0.172377 11.1871 0.17265 11.1865 0.172939C11.1862 0.173056 11.1855 0.173361 11.185 0.173595C11.1839 0.174064 11.1827 0.174595 11.1814 0.175189C11.1788 0.176377 11.1756 0.177816 11.1718 0.179504C11.1643 0.182881 11.1547 0.187258 11.1429 0.192633C11.1194 0.203382 11.0874 0.218127 11.0477 0.236841C10.9681 0.274257 10.857 0.327614 10.7189 0.396692C10.4428 0.534703 10.0571 0.736318 9.59802 0.999868C8.68436 1.52438 7.45707 2.30736 6.21963 3.33855C3.81204 5.34488 1 8.60466 1 13H5ZM12 2C11.1877 3.82762 11.1872 3.82738 11.1867 3.82715C11.1865 3.8271 11.1861 3.82688 11.1858 3.82677C11.1853 3.82655 11.1849 3.82638 11.1847 3.82627C11.1842 3.82606 11.1843 3.82609 11.1849 3.82635C11.186 3.82687 11.1893 3.82834 11.1945 3.83074C11.2051 3.83556 11.2237 3.84413 11.2498 3.85642C11.3021 3.88102 11.3844 3.92043 11.4923 3.9744C11.7085 4.08248 12.0259 4.24806 12.4105 4.46888C13.1844 4.91312 14.2071 5.56764 15.2196 6.41144C17.312 8.15512 19 10.3953 19 13H23C23 8.60466 20.188 5.34488 17.7804 3.33855C16.5429 2.30736 15.3156 1.52438 14.402 0.999868C13.9429 0.736318 13.5572 0.534703 13.2811 0.396692C13.143 0.327614 13.0319 0.274257 12.9523 0.236841C12.9126 0.218127 12.8806 0.203382 12.8571 0.192633C12.8453 0.187258 12.8357 0.182881 12.8282 0.179504C12.8244 0.177816 12.8212 0.176377 12.8186 0.175189C12.8173 0.174595 12.8161 0.174064 12.815 0.173595C12.8145 0.173361 12.8138 0.173056 12.8135 0.172939C12.8129 0.17265 12.8123 0.172377 12 2Z" fill="#EF5A74" mask="url(#path-1-inside-1_1330_1221)"/>
<mask id="path-3-inside-2_1330_1221" fill="white">
<path d="M12 22C16.9706 22 21 17.9706 21 13C21 11.2718 20.4398 9.70756 19.6135 8.36011C18.7306 11.6317 15.1 11.5098 13.8 11.1177C10.9058 10.2446 9.4 11.804 8.7 12.5883C6.69326 14.6762 4 13.6471 3 13C3 17.9706 7.02944 22 12 22Z"/>
</mask>
<path d="M12 22C16.9706 22 21 17.9706 21 13C21 11.2718 20.4398 9.70756 19.6135 8.36011C18.7306 11.6317 15.1 11.5098 13.8 11.1177C10.9058 10.2446 9.4 11.804 8.7 12.5883C6.69326 14.6762 4 13.6471 3 13C3 17.9706 7.02944 22 12 22Z" fill="#EF5A74"/>
<path d="M3 13L4.62975 10.4813C3.70705 9.88429 2.53174 9.83957 1.56634 10.3648C0.600943 10.89 0 11.901 0 13H3ZM8.7 12.5883L10.8629 14.6672C10.8885 14.6405 10.9136 14.6134 10.9382 14.5859L8.7 12.5883ZM13.8 11.1177L12.9336 13.9899L13.8 11.1177ZM19.6135 8.36011L22.1709 6.7918C21.5447 5.77057 20.3709 5.21981 19.1852 5.39084C17.9995 5.56186 17.0292 6.42189 16.7171 7.57847L19.6135 8.36011ZM18 13C18 16.3137 15.3137 19 12 19V25C18.6274 25 24 19.6275 24 13H18ZM12 19C8.68629 19 6 16.3137 6 13H0C0 19.6275 5.37259 25 12 25V19ZM1.37025 15.5188C2.19857 16.0547 3.59976 16.6901 5.25243 16.8117C7.01658 16.9414 9.12824 16.472 10.8629 14.6672L6.53707 10.5094C6.3663 10.6871 6.23182 10.7521 6.13809 10.784C6.03094 10.8204 5.88698 10.8421 5.69252 10.8278C5.49282 10.8132 5.2732 10.7623 5.0584 10.684C4.83977 10.6042 4.68638 10.518 4.62975 10.4813L1.37025 15.5188ZM10.9382 14.5859C11.2347 14.2537 11.4441 14.0656 11.6779 13.9583C11.7798 13.9116 11.9035 13.8735 12.0716 13.8628C12.242 13.8519 12.5206 13.8653 12.9336 13.9899L14.6664 8.24553C12.5393 7.60388 10.6853 7.81258 9.17646 8.50463C7.75881 9.15486 6.86535 10.1385 6.46179 10.5907L10.9382 14.5859ZM12.9336 13.9899C14.0527 14.3275 15.8698 14.5047 17.6696 14.0024C19.6391 13.4527 21.7354 12.0117 22.5099 9.14174L16.7171 7.57847C16.6401 7.864 16.5416 7.96626 16.4931 8.01052C16.425 8.07262 16.2953 8.15665 16.0567 8.22324C15.8127 8.29133 15.5186 8.32219 15.2189 8.31357C15.0742 8.30941 14.9449 8.29645 14.8404 8.28046C14.7887 8.27256 14.7467 8.26447 14.7152 8.25753C14.6996 8.2541 14.6876 8.25116 14.679 8.24894C14.6703 8.2467 14.6662 8.24546 14.6664 8.24553L12.9336 13.9899ZM17.0561 9.92841C17.6592 10.9119 18 11.9397 18 13H24C24 10.6039 23.2204 8.50318 22.1709 6.7918L17.0561 9.92841Z" fill="#EF5A74" mask="url(#path-3-inside-2_1330_1221)"/>
</svg>
