<svg width="24" height="24" viewBox="0 0 24 24" fill="none" xmlns="http://www.w3.org/2000/svg">
<path fill-rule="evenodd" clip-rule="evenodd" d="M11.3356 2.25259C11.7145 1.9158 12.2855 1.9158 12.6644 2.25259L21.6644 10.2526C22.0772 10.6195 22.1143 11.2516 21.7474 11.6644C21.3805 12.0771 20.7484 12.1143 20.3356 11.7474L20 11.4491V19C20 20.1046 19.1046 21 18 21H6.00001C4.89544 21 4.00001 20.1046 4.00001 19V11.4491L3.66437 11.7474C3.25159 12.1143 2.61952 12.0771 2.2526 11.6644C1.88568 11.2516 1.92286 10.6195 2.33565 10.2526L11.3356 2.25259ZM6.00001 9.67129V15.0394C6.96979 14.9195 8.01691 14.4571 8.6799 13.2544C9.08708 12.4465 9.9915 10.8149 12.5917 10.896C13.5888 10.9271 15.9539 10.4161 16.6279 8.45164L12 4.33795L6.00001 9.67129Z" fill="#EF5A74"/>
</svg>
