<svg width="24" height="24" viewBox="0 0 24 24" fill="none" xmlns="http://www.w3.org/2000/svg">
<mask id="path-1-inside-1_1330_1283" fill="white">
<path fill-rule="evenodd" clip-rule="evenodd" d="M17.6569 6.34315C20.781 9.46734 20.781 14.5327 17.6569 17.6569C14.5327 20.781 9.46734 20.781 6.34315 17.6569C3.21895 14.5327 3.21895 9.46734 6.34315 6.34315C9.46734 3.21895 14.5327 3.21895 17.6569 6.34315ZM19.0711 4.92893C22.9763 8.83418 22.9763 15.1658 19.0711 19.0711C15.1658 22.9763 8.83417 22.9763 4.92893 19.0711C1.02369 15.1658 1.02369 8.83418 4.92893 4.92893C8.83417 1.02369 15.1658 1.02369 19.0711 4.92893ZM8.79899 10.8483C9.51643 10.4341 9.76224 9.51672 9.34803 8.79928C8.93382 8.08184 8.01643 7.83603 7.29899 8.25024C6.58155 8.66446 6.33574 9.58184 6.74995 10.2993C7.16417 11.0167 8.08155 11.2625 8.79899 10.8483ZM13.6781 6.29904C14.0923 7.01648 13.8465 7.93386 13.1291 8.34808C12.4116 8.76229 11.4942 8.51648 11.08 7.79904C10.6658 7.0816 10.9116 6.16421 11.6291 5.75C12.3465 5.33579 13.2639 5.5816 13.6781 6.29904ZM17.9466 10.57C18.8277 13.8584 16.8762 17.2384 13.5878 18.1195C10.6001 18.9201 7.53666 17.3823 6.34063 14.628C6.1828 14.2646 6.54527 13.8982 6.94092 13.9199C7.85261 13.9699 9.05171 13.7198 9.73625 12.478C10.0603 11.835 10.7801 10.5365 12.8496 10.601C13.6048 10.6246 15.346 10.2574 15.9749 8.87438C16.1565 8.47506 16.7166 8.25876 16.9801 8.6095C17.4082 9.17935 17.7486 9.8313 17.9466 10.57Z"/>
</mask>
<path fill-rule="evenodd" clip-rule="evenodd" d="M17.6569 6.34315C20.781 9.46734 20.781 14.5327 17.6569 17.6569C14.5327 20.781 9.46734 20.781 6.34315 17.6569C3.21895 14.5327 3.21895 9.46734 6.34315 6.34315C9.46734 3.21895 14.5327 3.21895 17.6569 6.34315ZM19.0711 4.92893C22.9763 8.83418 22.9763 15.1658 19.0711 19.0711C15.1658 22.9763 8.83417 22.9763 4.92893 19.0711C1.02369 15.1658 1.02369 8.83418 4.92893 4.92893C8.83417 1.02369 15.1658 1.02369 19.0711 4.92893ZM8.79899 10.8483C9.51643 10.4341 9.76224 9.51672 9.34803 8.79928C8.93382 8.08184 8.01643 7.83603 7.29899 8.25024C6.58155 8.66446 6.33574 9.58184 6.74995 10.2993C7.16417 11.0167 8.08155 11.2625 8.79899 10.8483ZM13.6781 6.29904C14.0923 7.01648 13.8465 7.93386 13.1291 8.34808C12.4116 8.76229 11.4942 8.51648 11.08 7.79904C10.6658 7.0816 10.9116 6.16421 11.6291 5.75C12.3465 5.33579 13.2639 5.5816 13.6781 6.29904ZM17.9466 10.57C18.8277 13.8584 16.8762 17.2384 13.5878 18.1195C10.6001 18.9201 7.53666 17.3823 6.34063 14.628C6.1828 14.2646 6.54527 13.8982 6.94092 13.9199C7.85261 13.9699 9.05171 13.7198 9.73625 12.478C10.0603 11.835 10.7801 10.5365 12.8496 10.601C13.6048 10.6246 15.346 10.2574 15.9749 8.87438C16.1565 8.47506 16.7166 8.25876 16.9801 8.6095C17.4082 9.17935 17.7486 9.8313 17.9466 10.57Z" fill="#EF5A74"/>
<path d="M17.6569 17.6569L19.7782 19.7782L17.6569 17.6569ZM17.6569 6.34315L15.5355 8.46447H15.5355L17.6569 6.34315ZM6.34315 17.6569L4.22182 19.7782H4.22183L6.34315 17.6569ZM6.34315 6.34315L4.22183 4.22183L4.22182 4.22183L6.34315 6.34315ZM19.0711 4.92893L21.1924 2.80761L19.0711 4.92893ZM4.92893 19.0711L7.05025 16.9497H7.05025L4.92893 19.0711ZM4.92893 4.92893L7.05025 7.05025H7.05025L4.92893 4.92893ZM9.34803 8.79928L11.9461 7.29928L11.9461 7.29928L9.34803 8.79928ZM8.79899 10.8483L7.29899 8.25024L7.29899 8.25024L8.79899 10.8483ZM7.29899 8.25024L5.79899 5.65217L5.79899 5.65217L7.29899 8.25024ZM13.1291 8.34808L14.6291 10.9462L14.6291 10.9462L13.1291 8.34808ZM13.6781 6.29904L11.08 7.79904L11.08 7.79904L13.6781 6.29904ZM11.08 7.79904L13.6781 6.29904V6.29904L11.08 7.79904ZM13.5878 18.1195L12.8114 15.2218H12.8114L13.5878 18.1195ZM17.9466 10.57L20.8444 9.79354L20.8444 9.79353L17.9466 10.57ZM6.34063 14.628L3.58888 15.823L3.58888 15.823L6.34063 14.628ZM6.94092 13.9199L7.10519 10.9244H7.10519L6.94092 13.9199ZM9.73625 12.478L12.3635 13.9262C12.3814 13.8939 12.3986 13.8612 12.4152 13.8282L9.73625 12.478ZM12.8496 10.601L12.7561 13.5996H12.7561L12.8496 10.601ZM15.9749 8.87438L18.7058 10.1162V10.1162L15.9749 8.87438ZM16.9801 8.6095L19.3787 6.80769L19.3787 6.80769L16.9801 8.6095ZM19.7782 19.7782C24.0739 15.4824 24.0739 8.51759 19.7782 4.22183L15.5355 8.46447C17.4882 10.4171 17.4882 13.5829 15.5355 15.5355L19.7782 19.7782ZM4.22183 19.7782C8.51759 24.0739 15.4824 24.0739 19.7782 19.7782L15.5355 15.5355C13.5829 17.4882 10.4171 17.4882 8.46447 15.5355L4.22183 19.7782ZM4.22182 4.22183C-0.073942 8.51759 -0.0739417 15.4824 4.22182 19.7782L8.46447 15.5355C6.51184 13.5829 6.51184 10.4171 8.46447 8.46447L4.22182 4.22183ZM19.7782 4.22183C15.4824 -0.0739419 8.51759 -0.0739417 4.22183 4.22183L8.46447 8.46447C10.4171 6.51184 13.5829 6.51184 15.5355 8.46447L19.7782 4.22183ZM21.1924 21.1924C26.2692 16.1156 26.2692 7.88443 21.1924 2.80761L16.9497 7.05025C19.6834 9.78392 19.6834 14.2161 16.9497 16.9497L21.1924 21.1924ZM2.80761 21.1924C7.88443 26.2692 16.1156 26.2692 21.1924 21.1924L16.9497 16.9497C14.2161 19.6834 9.78392 19.6834 7.05025 16.9497L2.80761 21.1924ZM2.80761 2.80761C-2.2692 7.88443 -2.2692 16.1156 2.80761 21.1924L7.05025 16.9497C4.31658 14.2161 4.31658 9.78392 7.05025 7.05025L2.80761 2.80761ZM21.1924 2.80761C16.1156 -2.2692 7.88443 -2.2692 2.80761 2.80761L7.05025 7.05025C9.78392 4.31658 14.2161 4.31658 16.9497 7.05025L21.1924 2.80761ZM6.74995 10.2993C6.33574 9.58184 6.58155 8.66446 7.29899 8.25024L10.299 13.4464C12.4513 12.2038 13.1887 9.4516 11.9461 7.29928L6.74995 10.2993ZM8.79899 10.8483C8.08155 11.2625 7.16417 11.0167 6.74995 10.2993L11.9461 7.29928C10.7035 5.14697 7.95131 4.40953 5.79899 5.65217L8.79899 10.8483ZM9.34803 8.79928C9.76224 9.51672 9.51643 10.4341 8.79899 10.8483L5.79899 5.65217C3.64668 6.89481 2.90924 9.64697 4.15188 11.7993L9.34803 8.79928ZM7.29899 8.25024C8.01643 7.83603 8.93382 8.08184 9.34803 8.79928L4.15188 11.7993C5.39452 13.9516 8.14667 14.689 10.299 13.4464L7.29899 8.25024ZM14.6291 10.9462C16.7814 9.70351 17.5188 6.95136 16.2762 4.79904L11.08 7.79904C10.6658 7.0816 10.9116 6.16421 11.6291 5.75L14.6291 10.9462ZM8.48196 9.29904C9.7246 11.4514 12.4768 12.1888 14.6291 10.9462L11.6291 5.75C12.3465 5.33579 13.2639 5.5816 13.6781 6.29904L8.48196 9.29904ZM10.1291 3.15192C7.97675 4.39457 7.23932 7.14672 8.48196 9.29904L13.6781 6.29904C14.0923 7.01648 13.8465 7.93386 13.1291 8.34808L10.1291 3.15192ZM16.2762 4.79904C15.0335 2.64672 12.2814 1.90928 10.1291 3.15192L13.1291 8.34808C12.4116 8.76229 11.4942 8.51648 11.08 7.79904L16.2762 4.79904ZM14.3643 21.0173C19.2531 19.7074 22.1543 14.6823 20.8444 9.79354L15.0488 11.3464C15.5011 13.0344 14.4994 14.7695 12.8114 15.2218L14.3643 21.0173ZM3.58888 15.823C5.36809 19.9202 9.91987 22.2082 14.3643 21.0173L12.8114 15.2218C11.2803 15.632 9.70524 14.8444 9.09238 13.4331L3.58888 15.823ZM7.10519 10.9244C5.961 10.8616 4.9011 11.3438 4.19886 12.1276C3.45273 12.9604 2.95638 14.3664 3.58888 15.823L9.09238 13.4331C9.56704 14.5262 9.17301 15.5673 8.66757 16.1314C8.20602 16.6466 7.52519 16.9564 6.77666 16.9154L7.10519 10.9244ZM7.10897 11.0297C7.10285 11.0408 7.10269 11.0391 7.11084 11.0289C7.11906 11.0186 7.13228 11.0039 7.15064 10.9877C7.16889 10.9715 7.18838 10.9572 7.20762 10.9452C7.22662 10.9334 7.2426 10.9257 7.25366 10.921C7.27472 10.912 7.27381 10.9159 7.24278 10.9203C7.21105 10.9248 7.16389 10.9276 7.10519 10.9244L6.77665 16.9154C8.30065 16.999 10.903 16.5759 12.3635 13.9262L7.10897 11.0297ZM12.9431 7.60247C11.1985 7.54805 9.78236 8.0876 8.72452 8.96396C7.7439 9.77634 7.25552 10.7344 7.05729 11.1277L12.4152 13.8282C12.4782 13.7033 12.5112 13.6465 12.5393 13.6057C12.5645 13.5691 12.5701 13.5696 12.5523 13.5844C12.5431 13.592 12.5311 13.6005 12.5175 13.6082C12.5037 13.616 12.495 13.6191 12.495 13.6191C12.4952 13.619 12.5122 13.6132 12.5511 13.6078C12.5905 13.6022 12.6571 13.5965 12.7561 13.5996L12.9431 7.60247ZM13.244 7.63255C13.2868 7.53828 13.3414 7.48234 13.3617 7.46471C13.3747 7.45342 13.3522 7.47572 13.2739 7.5094C13.1965 7.54271 13.1028 7.57049 13.0116 7.58772C12.9683 7.59589 12.9352 7.59984 12.9161 7.60149C12.8945 7.60336 12.9035 7.60123 12.9431 7.60247L12.7561 13.5996C13.5686 13.6249 14.6297 13.4578 15.6452 13.0209C16.6815 12.5751 17.9833 11.705 18.7058 10.1162L13.244 7.63255ZM19.3787 6.80769C18.2866 5.35384 16.6153 5.27032 15.5653 5.59309C14.5863 5.89403 13.7061 6.61636 13.244 7.63255L18.7058 10.1162C18.4253 10.7331 17.9159 11.1476 17.3283 11.3282C16.6696 11.5307 15.4101 11.5144 14.5814 10.4113L19.3787 6.80769ZM20.8444 9.79353C20.536 8.64278 20.0099 7.64793 19.3787 6.80769L14.5814 10.4113C14.8064 10.7108 14.9613 11.0198 15.0488 11.3465L20.8444 9.79353Z" fill="#EF5A74" mask="url(#path-1-inside-1_1330_1283)"/>
</svg>
