<svg width="24" height="24" viewBox="0 0 24 24" fill="none" xmlns="http://www.w3.org/2000/svg">
<mask id="path-1-inside-1_1330_620" fill="white">
<path fill-rule="evenodd" clip-rule="evenodd" d="M4 10C4 6.68629 6.68629 4 10 4C11.746 4 13.3178 4.74579 14.4143 5.93619C13.9891 7.79526 11.853 8.26822 10.9794 8.24097C8.81624 8.17351 8.06386 9.53083 7.72512 10.2029C6.85199 11.7869 5.17795 11.8272 4.22621 11.6376C4.07886 11.1171 4 10.5677 4 10ZM10 2C5.58172 2 2 5.58172 2 10C2 14.4183 5.58172 18 10 18C11.8487 18 13.551 17.3729 14.9056 16.3199L20.2929 21.7071C20.6834 22.0976 21.3166 22.0976 21.7071 21.7071C22.0976 21.3166 22.0976 20.6834 21.7071 20.2929L16.3199 14.9056C17.3729 13.551 18 11.8487 18 10C18 5.58172 14.4183 2 10 2Z"/>
</mask>
<path fill-rule="evenodd" clip-rule="evenodd" d="M4 10C4 6.68629 6.68629 4 10 4C11.746 4 13.3178 4.74579 14.4143 5.93619C13.9891 7.79526 11.853 8.26822 10.9794 8.24097C8.81624 8.17351 8.06386 9.53083 7.72512 10.2029C6.85199 11.7869 5.17795 11.8272 4.22621 11.6376C4.07886 11.1171 4 10.5677 4 10ZM10 2C5.58172 2 2 5.58172 2 10C2 14.4183 5.58172 18 10 18C11.8487 18 13.551 17.3729 14.9056 16.3199L20.2929 21.7071C20.6834 22.0976 21.3166 22.0976 21.7071 21.7071C22.0976 21.3166 22.0976 20.6834 21.7071 20.2929L16.3199 14.9056C17.3729 13.551 18 11.8487 18 10C18 5.58172 14.4183 2 10 2Z" fill="#EF5A74"/>
<path d="M14.4143 5.93619L17.3388 6.6051C17.5592 5.64137 17.2907 4.6309 16.6209 3.90373L14.4143 5.93619ZM10.9794 8.24097L11.0729 5.24243L11.0729 5.24243L10.9794 8.24097ZM7.72512 10.2029L10.3524 11.6511C10.3702 11.6188 10.3875 11.5861 10.4041 11.5532L7.72512 10.2029ZM4.22621 11.6376L1.33964 12.4547C1.64654 13.5389 2.53509 14.3597 3.64018 14.5798L4.22621 11.6376ZM14.9056 16.3199L17.027 14.1985C15.9573 13.1289 14.2587 13.0229 13.0645 13.9513L14.9056 16.3199ZM20.2929 21.7071L18.1716 23.8284L18.1716 23.8284L20.2929 21.7071ZM21.7071 21.7071L23.8284 23.8284L23.8284 23.8284L21.7071 21.7071ZM21.7071 20.2929L23.8284 18.1716L23.8284 18.1716L21.7071 20.2929ZM16.3199 14.9056L13.9513 13.0645C13.0229 14.2587 13.1289 15.9573 14.1985 17.027L16.3199 14.9056ZM10 1C5.02944 1 1 5.02944 1 10H7C7 8.34315 8.34315 7 10 7V1ZM16.6209 3.90373C14.9803 2.12254 12.619 1 10 1V7C10.873 7 11.6554 7.36903 12.2077 7.96865L16.6209 3.90373ZM11.4898 5.26728C11.4951 5.24396 11.5069 5.20848 11.5279 5.16863C11.5485 5.12967 11.5706 5.10045 11.5871 5.08204C11.6166 5.04916 11.6107 5.06911 11.5263 5.11118C11.4418 5.15334 11.3279 5.19259 11.2057 5.21837C11.1479 5.23055 11.1005 5.23712 11.0687 5.24023C11.0337 5.24364 11.0348 5.24124 11.0729 5.24243L10.8859 11.2395C11.7861 11.2676 13.0349 11.0635 14.2037 10.4807C15.4322 9.86814 16.8669 8.66816 17.3388 6.6051L11.4898 5.26728ZM11.0729 5.24243C9.28144 5.18656 7.83377 5.74007 6.75423 6.63439C5.75192 7.46475 5.25173 8.4448 5.04616 8.85266L10.4041 11.5532C10.5373 11.2889 10.5826 11.2543 10.582 11.2548C10.5689 11.2656 10.5565 11.27 10.5653 11.267C10.5764 11.2633 10.6693 11.2328 10.8859 11.2395L11.0729 5.24243ZM5.09784 8.75468C5.08589 8.77636 5.08195 8.77868 5.09002 8.76931C5.09817 8.75985 5.11187 8.74623 5.13034 8.73221C5.16964 8.70239 5.19546 8.69665 5.1825 8.70035C5.16426 8.70555 5.11482 8.71573 5.03321 8.71624C4.95163 8.71674 4.8717 8.70727 4.81225 8.69543L3.64018 14.5798C5.02983 14.8566 8.51341 14.9873 10.3524 11.6511L5.09784 8.75468ZM1 10C1 10.8467 1.11776 11.671 1.33964 12.4547L7.11279 10.8205C7.03995 10.5632 7 10.2887 7 10H1ZM5 10C5 7.23858 7.23858 5 10 5V-1C3.92487 -1 -1 3.92487 -1 10H5ZM10 15C7.23858 15 5 12.7614 5 10H-1C-1 16.0751 3.92487 21 10 21V15ZM13.0645 13.9513C12.2176 14.6096 11.1586 15 10 15V21C12.5388 21 14.8843 20.1362 16.7468 18.6884L13.0645 13.9513ZM22.4142 19.5858L17.027 14.1985L12.7843 18.4412L18.1716 23.8284L22.4142 19.5858ZM19.5858 19.5858C20.3668 18.8047 21.6332 18.8047 22.4142 19.5858L18.1716 23.8284C19.7337 25.3905 22.2663 25.3905 23.8284 23.8284L19.5858 19.5858ZM19.5858 22.4142C18.8047 21.6332 18.8047 20.3668 19.5858 19.5858L23.8284 23.8284C25.3905 22.2663 25.3905 19.7337 23.8284 18.1716L19.5858 22.4142ZM14.1985 17.027L19.5858 22.4142L23.8284 18.1716L18.4412 12.7843L14.1985 17.027ZM15 10C15 11.1586 14.6096 12.2176 13.9513 13.0645L18.6884 16.7468C20.1362 14.8843 21 12.5388 21 10H15ZM10 5C12.7614 5 15 7.23858 15 10H21C21 3.92487 16.0751 -1 10 -1V5Z" fill="#EF5A74" mask="url(#path-1-inside-1_1330_620)"/>
</svg>
