<svg width="24" height="24" viewBox="0 0 24 24" fill="none" xmlns="http://www.w3.org/2000/svg">
<path d="M13.6781 6.29903C14.0924 7.01647 13.8465 7.93386 13.1291 8.34807C12.4117 8.76228 11.4943 8.51647 11.0801 7.79903C10.6659 7.08159 10.9117 6.16421 11.6291 5.74999C12.3465 5.33578 13.2639 5.58159 13.6781 6.29903Z" fill="#BDBDBD"/>
<path d="M9.34807 8.79928C9.76228 9.51672 9.51647 10.4341 8.79903 10.8483C8.08159 11.2625 7.16421 11.0167 6.74999 10.2993C6.33578 9.58184 6.58159 8.66445 7.29903 8.25024C8.01647 7.83603 8.93386 8.08184 9.34807 8.79928Z" fill="#BDBDBD"/>
<path d="M17.6071 11.587C18.1406 11.7299 18.4572 12.2783 18.3142 12.8117C17.3136 16.546 13.4753 18.7621 9.741 17.7615C9.20753 17.6185 8.89095 17.0702 9.03389 16.5367C9.17683 16.0033 9.72517 15.6867 10.2586 15.8296C12.926 16.5443 15.6676 14.9614 16.3824 12.2941C16.5253 11.7606 17.0736 11.444 17.6071 11.587Z" fill="#BDBDBD"/>
<path fill-rule="evenodd" clip-rule="evenodd" d="M19.0711 4.92893C22.9763 8.83418 22.9763 15.1658 19.0711 19.0711C15.1658 22.9763 8.83418 22.9763 4.92893 19.0711C1.02369 15.1658 1.02369 8.83418 4.92893 4.92893C8.83418 1.02369 15.1658 1.02369 19.0711 4.92893ZM17.6569 6.34315C20.781 9.46734 20.781 14.5327 17.6569 17.6569C14.5327 20.781 9.46734 20.781 6.34315 17.6569C3.21895 14.5327 3.21895 9.46734 6.34315 6.34315C9.46734 3.21895 14.5327 3.21895 17.6569 6.34315Z" fill="#BDBDBD"/>
</svg>
