<svg width="24" height="24" viewBox="0 0 24 24" fill="none" xmlns="http://www.w3.org/2000/svg">
<path d="M4.50001 11.4491V10.3356L3.66783 11.0754L3.33219 11.3737C3.1258 11.5572 2.80977 11.5386 2.62631 11.3322C2.44285 11.1258 2.46144 10.8098 2.66783 10.6263L11.6678 2.6263C11.8573 2.4579 12.1427 2.4579 12.3322 2.6263L21.3322 10.6263C21.5386 10.8098 21.5572 11.1258 21.3737 11.3322C21.1903 11.5386 20.8742 11.5572 20.6678 11.3737L20.3322 11.0754L19.5 10.3356V11.4491V19C19.5 19.8284 18.8284 20.5 18 20.5H6.00001C5.17158 20.5 4.50001 19.8284 4.50001 19V11.4491ZM5.66783 9.29758L5.50001 9.44675V9.67129V19V19.5H6.00001H9.00001H9.50001V19V14C9.50001 13.7239 9.72387 13.5 10 13.5H14C14.2762 13.5 14.5 13.7239 14.5 14V19V19.5H15H18H18.5V19V9.67129V9.44675L18.3322 9.29758L12.3322 3.96425L12 3.66898L11.6678 3.96425L5.66783 9.29758ZM13 19.5H13.5V19V15V14.5H13H11H10.5V15V19V19.5H11H13ZM15.5 10.5C15.5 11.0523 15.0523 11.5 14.5 11.5C13.9477 11.5 13.5 11.0523 13.5 10.5C13.5 9.94772 13.9477 9.5 14.5 9.5C15.0523 9.5 15.5 9.94772 15.5 10.5Z" fill="#BDBDBD" stroke="#BDBDBD"/>
</svg>
