<svg width="24" height="24" viewBox="0 0 24 24" fill="none" xmlns="http://www.w3.org/2000/svg">
<path d="M15.2592 15.9663L14.9472 15.6543L14.5988 15.9251C13.3287 16.9124 11.7337 17.5 10 17.5C5.85786 17.5 2.5 14.1421 2.5 10C2.5 5.85786 5.85786 2.5 10 2.5C14.1421 2.5 17.5 5.85786 17.5 10C17.5 11.7337 16.9124 13.3287 15.9251 14.5988L15.6543 14.9472L15.9663 15.2592L21.3536 20.6464C21.5488 20.8417 21.5488 21.1583 21.3536 21.3536C21.1583 21.5488 20.8417 21.5488 20.6464 21.3536L15.2592 15.9663ZM13.5 8.5C13.5 9.05228 13.0523 9.5 12.5 9.5C11.9477 9.5 11.5 9.05228 11.5 8.5C11.5 7.94772 11.9477 7.5 12.5 7.5C13.0523 7.5 13.5 7.94772 13.5 8.5ZM10 3.5C6.41015 3.5 3.5 6.41015 3.5 10C3.5 13.5899 6.41015 16.5 10 16.5C13.5899 16.5 16.5 13.5899 16.5 10C16.5 6.41015 13.5899 3.5 10 3.5Z" fill="#BDBDBD" stroke="#BDBDBD"/>
</svg>
